<?xml version="1.0" standalone="no"?>
<!DOCTYPE svg PUBLIC "-//W3C//DTD SVG 20010904//EN"
 "http://www.w3.org/TR/2001/REC-SVG-20010904/DTD/svg10.dtd">
<svg version="1.0" xmlns="http://www.w3.org/2000/svg"
 width="40.000000pt" height="40.000000pt" viewBox="0 0 40.000000 40.000000"
 preserveAspectRatio="xMidYMid meet">

<g transform="translate(0.000000,40.000000) scale(0.100000,-0.100000)"
fill="#000000" stroke="none">
<path d="M0 200 l0 -200 200 0 200 0 0 200 0 200 -200 0 -200 0 0 -200z m276
144 c76 -36 106 -137 64 -212 -27 -48 -84 -82 -136 -82 -123 0 -201 126 -142
231 39 70 138 99 214 63z"/>
<path d="M190 205 c0 -130 1 -135 21 -135 33 0 86 29 105 58 24 36 24 118 0
154 -19 29 -72 58 -105 58 -20 0 -21 -5 -21 -135z"/>
<path d="M107 288 c-21 -11 -22 -31 -3 -47 20 -16 46 -3 46 24 0 27 -19 37
-43 23z"/>
<path d="M96 155 c-8 -22 4 -45 24 -45 28 0 45 27 30 45 -7 8 -20 15 -30 15
-10 0 -20 -7 -24 -15z"/>
</g>
</svg>
